<svg width="42" height="42" viewBox="0 0 42 42" fill="none" xmlns="http://www.w3.org/2000/svg">
<rect width="42" height="42" rx="21" fill="white"/>
<path d="M18.9011 32C21.3607 31.995 23.6778 30.8675 25.1734 28.9472V26.6356H21.8191V23.4051H25.1742L25.1732 20.1079H25.5144C23.5637 16.1175 19.9843 11.3919 18.901 10C17.3905 11.9451 10.9993 20.394 10.9993 24.2247C11.0013 26.286 11.8343 28.2629 13.3165 29.7201C14.7977 31.1775 16.8062 31.998 18.9011 32ZM18.9011 30.1503V30.945C17.0908 30.943 15.3561 30.2347 14.0758 28.9751C12.7956 27.7154 12.0757 26.0078 12.0736 24.2266H12.8814C12.8834 25.7971 13.5175 27.3022 14.6453 28.4128C15.7741 29.5234 17.3038 30.1483 18.8991 30.1503L18.9011 30.1503Z" fill="#F88C8C"/>
<path d="M27.6505 20.9023H25.9825V24.1985H22.6282V25.8396H25.9825V29.1357H27.6505V25.8396H31.0006V24.1985H27.6505V20.9023Z" fill="#F88C8C"/>
</svg>
