<svg width="42" height="42" viewBox="0 0 42 42" fill="none" xmlns="http://www.w3.org/2000/svg">
<rect width="42" height="42" rx="21" fill="white"/>
<path d="M20.9555 8.4458C14.0315 8.4458 8.39844 14.0786 8.39844 21.0026C8.39874 27.9266 14.0315 33.5591 20.9555 33.5591C27.8792 33.5591 33.512 27.9266 33.512 21.0029C33.512 14.0786 27.8792 8.4458 20.9555 8.4458ZM18.0071 19.8305L19.0034 20.6966L28.4366 28.8968C26.4851 30.7472 23.8511 31.8869 20.9555 31.8869C14.954 31.8869 10.0715 27.0044 10.0715 21.0029C10.0715 18.6515 10.8233 16.4735 12.0962 14.6924L18.0071 19.8305ZM23.9597 22.175L22.6883 21.0698L21.2627 19.8305L22.6889 21.0698L13.5008 13.0832C15.4502 11.2472 18.0728 10.1186 20.9555 10.1186C26.9567 10.1186 31.8392 15.0011 31.8392 21.0026C31.8392 23.3408 31.0955 25.5071 29.8358 27.2831L23.9597 22.175Z" fill="#64D3C2"/>
<path d="M22.7316 20.7323L22.1172 20.2153L22.7316 20.7323Z" fill="#64D3C2"/>
<path d="M30.2401 18.8002C30.2479 17.5023 29.1637 16.4405 27.8224 16.4329L21.8098 16.399C20.9566 16.3943 20.2036 16.8183 19.7656 17.461L20.4772 18.0599C20.7343 17.6033 21.2302 17.2906 21.8044 17.2937L24.8104 17.3106L24.793 20.229L23.0434 20.2194L23.1307 20.2929L23.1304 20.2932L24.1129 21.1197L27.7942 21.1404C29.1352 21.1485 30.232 20.0978 30.2401 18.8002Z" fill="#64D3C2"/>
<path d="M11.9759 22.6041C11.4209 23.7855 11.9621 25.1839 13.1825 25.7209C14.4032 26.2576 15.8477 25.7345 16.4024 24.5522L18.299 20.5151L17.6522 19.9706L17.5715 19.9026L16.8059 21.5324L14.0615 20.3243L15.1979 17.9051L14.4707 17.2935C14.4689 17.2975 14.4665 17.301 14.4644 17.3051L11.9759 22.6041Z" fill="#64D3C2"/>
<path d="M25.3742 21.4225L24.4766 21.4315L25.481 22.2763C26.1344 22.3141 26.6711 22.7732 26.7944 23.3817L27.6482 24.1004C27.6812 23.9468 27.6989 23.788 27.6971 23.6244C27.6833 22.3974 26.6423 21.41 25.3742 21.4225Z" fill="#64D3C2"/>
<path d="M17.422 23.7278C17.4352 24.9548 18.4765 25.9437 19.7446 25.9303L24.6856 25.8806L23.6923 25.0451L22.5775 25.0558L22.5673 24.0983L19.4713 21.4927C18.3106 21.6149 17.4094 22.5745 17.422 23.7278Z" fill="#64D3C2"/>
</svg>
