<svg width="30" height="30" viewBox="0 0 30 30" fill="none" xmlns="http://www.w3.org/2000/svg">
<path d="M23.3329 18.903C23.2617 18.8877 23.1912 18.8718 23.1197 18.8591C22.8911 18.6472 22.7094 18.3511 22.5694 17.9971C22.217 17.1101 22.1136 15.8489 22.1231 14.5962C22.1429 12.3408 22.5388 10.1061 22.5388 10.1061C22.5388 10.1061 22.5388 10.1061 22.5388 10.1054C22.5388 9.79308 22.5313 9.49339 22.5196 9.20021C22.5157 9.10757 22.5096 9.01916 22.505 8.92847C22.4943 8.73052 22.4829 8.5355 22.4657 8.34632C22.4569 8.24653 22.4471 8.15 22.4377 8.05248C22.4205 7.87794 22.3997 7.70761 22.3766 7.54152C22.3646 7.44823 22.3526 7.35494 22.3386 7.26393C22.3132 7.09394 22.2846 6.92751 22.2547 6.76564C22.2394 6.69121 22.2274 6.6145 22.2128 6.54039C22.167 6.31936 22.1182 6.10418 22.0655 5.89778C22.0623 5.89031 22.0616 5.8825 22.059 5.87373C22.0025 5.65725 21.9424 5.45215 21.8773 5.2542C21.8565 5.19504 21.8367 5.13881 21.8162 5.0816C21.7717 4.94508 21.7216 4.81052 21.6716 4.6818C21.6469 4.61712 21.6209 4.55308 21.5949 4.49133C21.5474 4.37464 21.4951 4.26087 21.4437 4.15101C21.4164 4.09055 21.3891 4.03042 21.3605 3.97256C21.304 3.86139 21.2474 3.75413 21.1905 3.65077C21.1632 3.60201 21.1366 3.55228 21.1099 3.50547C21.0332 3.37221 20.9507 3.24252 20.8707 3.11997C20.8632 3.10795 20.8561 3.09462 20.8466 3.08194C20.7553 2.94673 20.6614 2.81834 20.5674 2.69775C20.5395 2.66232 20.5109 2.62916 20.4816 2.59568C20.413 2.51117 20.3451 2.42926 20.2746 2.35125C20.2378 2.31257 20.2021 2.27584 20.166 2.23619C20.102 2.16695 20.036 2.10097 19.9693 2.03694C19.9326 2.00086 19.8962 1.96575 19.8595 1.93227C19.7896 1.86889 19.7204 1.80973 19.6498 1.75057C19.6157 1.72197 19.5812 1.69272 19.5478 1.66606C19.459 1.59618 19.3693 1.5289 19.2786 1.46616C19.2647 1.45479 19.2487 1.44276 19.2354 1.43301C19.1307 1.35987 19.0241 1.29259 18.9178 1.22921C18.8873 1.21133 18.8564 1.19508 18.8265 1.17785C18.7511 1.13332 18.6747 1.09204 18.6019 1.05466C18.5619 1.03386 18.5239 1.01533 18.4852 0.996152C18.4166 0.962998 18.3506 0.931469 18.2834 0.901565C18.2434 0.884337 18.2053 0.86776 18.166 0.851508C18.0974 0.822255 18.0308 0.796901 17.9616 0.771548C17.9268 0.758221 17.8897 0.744245 17.8569 0.731568C17.7776 0.702964 17.697 0.676961 17.6199 0.653558C17.5985 0.647057 17.5754 0.638931 17.5553 0.63308C17.4568 0.603827 17.3615 0.578473 17.2676 0.55507C17.2357 0.547594 17.2071 0.541744 17.1769 0.535243C17.1129 0.520616 17.0485 0.505339 16.9871 0.493312C16.951 0.486486 16.9146 0.479336 16.8805 0.473485C16.8259 0.463408 16.7713 0.454307 16.7199 0.446181C16.6838 0.44033 16.6487 0.435455 16.6165 0.431554C16.5658 0.424728 16.5145 0.418228 16.4647 0.413027C16.4313 0.409777 16.4004 0.405551 16.3698 0.402301C16.3178 0.39775 16.2678 0.392874 16.218 0.389624C16.192 0.388324 16.1667 0.385073 16.1436 0.383773C16.0744 0.379223 16.011 0.377923 15.9486 0.374997C15.92 0.374347 15.8953 0.374347 15.8667 0.374347C15.8361 0.374347 15.8033 0.373697 15.7734 0.373697C15.6209 0.373697 15.499 0.379548 15.4129 0.387024C15.4009 0.387024 15.3931 0.387674 15.3837 0.388974C15.3525 0.390924 15.3278 0.393524 15.3099 0.395475C15.303 0.396125 15.2946 0.396775 15.29 0.398075C15.2728 0.398725 15.2627 0.400675 15.2627 0.400675C15.174 0.394825 15.0856 0.391249 14.9985 0.387999C14.9114 0.390599 14.8239 0.394825 14.7342 0.399375C14.7342 0.399375 14.7235 0.398725 14.7069 0.396775C14.7011 0.396125 14.6929 0.395475 14.6877 0.394825C14.6705 0.392874 14.6439 0.390274 14.614 0.387999C14.6058 0.387349 14.5961 0.387349 14.5847 0.386699C14.4989 0.378898 14.3777 0.373047 14.2252 0.373047C14.1947 0.373047 14.1605 0.373047 14.128 0.373047C14.1014 0.373047 14.0786 0.373047 14.0513 0.373697C13.9892 0.375647 13.9226 0.378898 13.854 0.382473C13.8335 0.383773 13.8108 0.385724 13.7893 0.387674C13.738 0.390924 13.6847 0.39515 13.6281 0.40165C13.5989 0.403601 13.569 0.407501 13.5403 0.411077C13.4877 0.416928 13.435 0.423753 13.3798 0.430904C13.3479 0.435455 13.3164 0.440331 13.2839 0.444881C13.226 0.453657 13.1688 0.463409 13.1093 0.474785C13.0781 0.480636 13.0466 0.485511 13.0148 0.491362C12.9455 0.505339 12.8776 0.521266 12.8051 0.536543C12.7811 0.542394 12.758 0.547919 12.732 0.55312C12.6348 0.575873 12.5363 0.601876 12.4375 0.63243C12.4216 0.636331 12.4056 0.642506 12.3894 0.647057C12.3068 0.67306 12.2223 0.700364 12.1375 0.730268C12.105 0.741644 12.0721 0.754321 12.039 0.766997C11.9678 0.793651 11.8973 0.821605 11.8258 0.851508C11.7897 0.866135 11.7526 0.882062 11.7172 0.898639C11.646 0.928543 11.5755 0.963323 11.504 0.997777C11.4685 1.015 11.4321 1.03191 11.3967 1.05108C11.3187 1.09171 11.2381 1.13624 11.1588 1.1824C11.1328 1.19833 11.1055 1.21165 11.0788 1.22823C10.9722 1.29226 10.8649 1.3602 10.757 1.43463C10.7469 1.44146 10.7372 1.44926 10.7278 1.45609C10.6325 1.52272 10.5379 1.59325 10.444 1.66801C10.4121 1.69272 10.3806 1.72002 10.3488 1.74537C10.2756 1.80583 10.2041 1.86856 10.1323 1.93325C10.0962 1.96705 10.0605 2.00118 10.0257 2.03434C9.95644 2.09967 9.8898 2.16825 9.82252 2.23944C9.78839 2.27552 9.75394 2.31192 9.72046 2.34865C9.64797 2.42861 9.57711 2.51312 9.50658 2.59926C9.48058 2.63176 9.45457 2.66134 9.42857 2.69515C9.33203 2.81704 9.2381 2.94543 9.14611 3.08162C9.13928 3.0917 9.13343 3.10307 9.12693 3.11217C9.04307 3.23731 8.96311 3.36863 8.8812 3.5058C8.8552 3.55098 8.83114 3.59974 8.80449 3.64687C8.74663 3.75283 8.68845 3.86139 8.63254 3.97386C8.60394 4.03172 8.57729 4.0899 8.54998 4.14971C8.49863 4.26152 8.44792 4.37626 8.39689 4.49458C8.37218 4.55666 8.34553 4.61842 8.32148 4.6818C8.27077 4.81247 8.22169 4.94833 8.17488 5.08745C8.15636 5.14401 8.1349 5.19732 8.11768 5.25517C8.05234 5.45442 7.99059 5.66083 7.93435 5.87665C7.9324 5.88478 7.9298 5.89453 7.9285 5.90266C7.87585 6.10841 7.82579 6.32294 7.78191 6.54396C7.76793 6.6171 7.75526 6.69316 7.74063 6.76629C7.71072 6.92816 7.68147 7.09589 7.65547 7.26653C7.64149 7.35657 7.63011 7.44986 7.61744 7.54282C7.59533 7.70924 7.57421 7.87924 7.55828 8.05508C7.54755 8.15292 7.53845 8.24946 7.52968 8.34957C7.5144 8.53745 7.50042 8.73247 7.4897 8.92977C7.4845 9.02111 7.47832 9.10952 7.47507 9.20346C7.46304 9.49599 7.45524 9.79633 7.45524 10.108C7.45524 10.108 7.45524 10.108 7.45524 10.1087C7.45524 10.1087 7.85082 12.344 7.87097 14.5988C7.883 15.8519 7.77833 17.112 7.42534 18.001C7.28362 18.3547 7.1042 18.6511 6.87504 18.8611C6.80126 18.8751 6.73235 18.8904 6.66312 18.9069C6.28737 18.994 5.06261 19.0974 3.82485 20.4167C3.07205 21.2199 2.31406 22.4717 1.74003 24.445C1.68868 24.6228 1.65357 24.8032 1.63797 24.9859C1.58661 25.5306 1.69128 26.0822 1.94156 26.5552C3.18387 28.9049 9.71786 29.6268 14.9998 29.6268C20.2817 29.6268 26.8173 28.9049 28.0593 26.5548C28.3076 26.0793 28.4123 25.5284 28.3629 24.9849C28.3395 24.7996 28.305 24.6186 28.2543 24.4408C27.681 22.4658 26.923 21.2157 26.1708 20.4138C24.9327 19.0942 23.7067 18.9898 23.3329 18.903ZM9.17374 9.69784C9.20689 9.67444 9.24297 9.65851 9.281 9.65201C9.36746 9.63739 9.45815 9.66989 9.54624 9.7414C9.54624 9.7414 9.54624 9.7349 9.54819 9.72157C9.57874 9.42318 9.97594 6.07493 12.483 6.30733L20.1468 10.2524L20.7696 9.65299C20.7901 9.65689 20.8122 9.66372 20.831 9.67282C21.1021 9.80121 21.2201 10.4383 21.0888 11.1661C20.9897 11.7242 20.7719 12.1844 20.5414 12.3811C20.4481 12.4584 20.3529 12.4955 20.2635 12.4802C20.2128 12.4714 20.1644 12.4464 20.1231 12.4071C19.6115 13.9968 18.6351 15.5808 17.4022 16.5335C16.6822 17.0877 15.8761 17.4267 15.0229 17.4267C14.1651 17.4267 13.3538 17.0831 12.6309 16.5221C11.4045 15.5691 10.4316 13.9903 9.92328 12.4071C9.88135 12.4451 9.83617 12.4705 9.78417 12.4802C9.68015 12.4987 9.56769 12.4461 9.46172 12.3391C9.2472 12.1233 9.05022 11.6878 8.95628 11.1661C8.83342 10.4786 8.93126 9.87174 9.17374 9.69784ZM9.76856 26.8731C9.65837 26.9647 9.52088 27.0151 9.37624 27.0151H8.69755C8.35691 27.0151 8.07997 26.7378 8.07997 26.3975L8.08225 26.354C8.105 26.0351 8.37511 25.7803 8.69788 25.7803H9.37624C9.44547 25.7803 9.51373 25.7916 9.57906 25.8147C9.62002 25.803 9.63302 25.7936 9.63302 25.7936C9.70876 25.6597 9.70876 25.1016 9.70876 24.8337C9.70876 24.2945 9.57354 23.6421 9.33626 23.035C9.21339 22.9651 9.11425 22.8594 9.05315 22.7317C8.64132 21.8703 8.08192 21.3135 7.62686 21.3135C7.16173 21.3135 6.57438 21.9155 6.16483 22.8104C6.09787 22.9563 5.98053 23.0749 5.83588 23.1455C5.62201 23.7257 5.50434 24.3224 5.50434 24.8334C5.50434 25.0587 5.50434 25.6558 5.59048 25.7959C5.59145 25.7959 5.61063 25.8076 5.66426 25.8206C5.73447 25.7939 5.80988 25.7799 5.88562 25.7799H6.5656C6.87959 25.7799 7.1419 26.0169 7.17798 26.3254L7.18156 26.3322L7.18286 26.3728C7.18286 26.7375 6.90592 27.0148 6.56593 27.0148H5.88594C5.75105 27.0148 5.62071 26.9696 5.51344 26.8874C5.12534 26.8145 4.85133 26.6432 4.67776 26.3644C4.46811 26.027 4.42975 25.5843 4.42975 24.8334C4.42975 24.1746 4.58187 23.4166 4.85816 22.692C4.81753 22.537 4.83118 22.3748 4.89846 22.2292C5.18645 21.5999 5.55245 21.061 5.9568 20.6713C6.17913 20.4567 6.41771 20.2848 6.66799 20.159C6.75933 19.9451 6.9147 19.7657 7.10647 19.6509C7.20723 19.0834 7.52513 18.4824 7.98864 17.9903C8.62702 17.3116 9.42889 16.9385 10.2464 16.9385H10.4089V16.9417C10.6917 16.9577 10.9173 17.1901 10.9173 17.4767C10.9173 17.7634 10.6917 17.9962 10.4089 18.0118V18.0137H10.3884C10.3848 18.0137 10.3819 18.015 10.379 18.015C10.3761 18.015 10.3725 18.0137 10.3696 18.0137H10.2464C9.23972 18.0137 8.40566 18.968 8.19504 19.7082C8.33936 19.8154 8.4567 19.9607 8.53373 20.1304C9.22802 20.4577 9.84137 21.1474 10.3111 22.1294C10.3897 22.2948 10.3998 22.4814 10.3423 22.6517C10.6237 23.3766 10.7846 24.1681 10.7846 24.8331C10.7843 25.7656 10.7843 26.6468 9.76856 26.8731ZM14.9959 23.7309C14.9959 23.7309 10.9608 19.9149 10.3007 19.0711C10.1615 18.8907 10.0741 18.7015 10.0504 18.5042V18.5035C10.0829 18.4915 10.1576 18.4655 10.2581 18.4197C10.2987 18.4025 10.3445 18.3797 10.3894 18.3544C10.7889 18.1454 11.3752 17.7088 11.3752 16.9398C11.3752 16.9398 11.3752 16.9398 11.3759 16.9398C12.0052 17.5626 12.7066 18.0582 13.4545 18.3544C13.9574 18.5543 14.4823 18.6648 15.0212 18.6648C15.5608 18.6648 16.0851 18.5543 16.5879 18.3544C17.3294 18.0612 18.022 17.5736 18.6494 16.957C18.6539 16.9596 18.6581 16.9616 18.6627 16.9638C18.6773 17.9536 19.6719 18.3878 19.9407 18.4879C19.9414 18.4912 19.9407 18.4967 19.9394 18.5039C19.9167 18.7002 19.8283 18.8903 19.6888 19.0707C19.0297 19.9136 14.9959 23.7309 14.9959 23.7309ZM21.825 26.6608C21.825 26.7729 21.7233 26.8639 21.5978 26.8639H20.3623V28.0988C20.3623 28.2246 20.2713 28.3266 20.1595 28.3266H18.9403C18.8281 28.3266 18.7374 28.2246 18.7374 28.0988V26.8639H17.502C17.3765 26.8639 17.2744 26.7729 17.2744 26.6608V25.4419C17.2744 25.3294 17.3765 25.2387 17.502 25.2387H18.7374V24.0033C18.7374 23.8775 18.8281 23.7761 18.9403 23.7761H20.1595C20.2713 23.7761 20.3623 23.8778 20.3623 24.0033V25.2387H21.5978C21.7236 25.2387 21.825 25.3294 21.825 25.4419V26.6608ZM23.3251 22.3127C23.0101 22.9007 22.4 23.2661 21.7334 23.2661C21.4392 23.2661 21.1447 23.192 20.8837 23.0525C20.4589 22.8253 20.1481 22.4463 20.0087 21.9854C19.8689 21.5242 19.9173 21.0363 20.1445 20.6118C20.3698 20.1905 20.7547 19.8801 21.2152 19.7426C21.0553 19.1156 20.6256 18.3648 19.8705 18.1168L19.6895 18.0573C19.6745 18.0521 19.6589 18.0488 19.6446 18.0426L19.5868 18.0235L19.5903 18.0127C19.4282 17.9191 19.3173 17.7456 19.3173 17.545C19.3173 17.246 19.5598 17.0035 19.8588 17.0035C19.8796 17.0035 19.8995 17.0074 19.9199 17.01L19.9229 17.0019L19.9609 17.0142C20.0048 17.0223 20.0461 17.0366 20.0851 17.0548L20.2066 17.0945C20.9838 17.3503 21.6287 17.9552 22.0233 18.799C22.1686 19.1085 22.2693 19.4312 22.3233 19.7589C22.4169 19.7907 22.5037 19.8281 22.5859 19.872C23.4619 20.341 23.7938 21.4358 23.3251 22.3127Z" fill="#C67070"/>
<path d="M21.7344 22.4371C22.2729 22.4371 22.7095 22.0005 22.7095 21.4619C22.7095 20.9234 22.2729 20.4868 21.7344 20.4868C21.1959 20.4868 20.7593 20.9234 20.7593 21.4619C20.7593 22.0005 21.1959 22.4371 21.7344 22.4371Z" fill="#C67070"/>
</svg>
